<svg width="512" height="512" viewBox="0 0 512 512" fill="none" xmlns="http://www.w3.org/2000/svg">
<g filter="url(#filter0_d_7_21)">
<path d="M129.1 404.834C133.979 399.126 142.534 398.5 148.591 402.939C179.281 425.435 216.362 437.814 254.64 438.136C292.918 438.457 330.202 426.702 361.266 404.725C367.396 400.388 375.939 401.157 380.722 406.946C385.504 412.736 384.712 421.346 378.624 425.742C342.592 451.764 299.092 465.703 254.412 465.328C209.732 464.953 166.472 450.285 130.882 423.662C124.869 419.164 124.221 410.542 129.1 404.834ZM320.887 356.891C327.118 351.68 336.443 352.441 341.722 358.721C346.989 364.986 346.177 374.346 339.888 379.606C316.501 399.165 286.982 409.889 256.488 409.895C225.994 409.9 196.471 399.189 173.077 379.64C166.786 374.382 165.97 365.021 171.234 358.754C176.51 352.473 185.834 351.707 192.067 356.915C210.133 372.012 232.933 380.284 256.482 380.279C280.031 380.275 302.827 371.994 320.887 356.891ZM257.748 394.788V394.789V394.788ZM226.766 390.894C227.167 391.001 227.568 391.105 227.971 391.208L226.766 390.893C226.365 390.785 225.964 390.676 225.564 390.564L226.766 390.894ZM217.301 387.917C218.056 388.191 218.815 388.457 219.576 388.715C218.815 388.457 218.056 388.191 217.301 387.917ZM214.939 387.033C215.697 387.327 216.457 387.611 217.221 387.888C216.457 387.61 215.697 387.326 214.939 387.032V387.033ZM87.6514 132.26C92.0998 126.21 100.716 125.491 106.464 130.323C112.212 135.155 112.908 143.705 108.519 149.798C86.2755 180.672 74.2008 217.853 74.1934 256.133C74.186 294.412 86.2465 331.598 108.478 362.48C112.864 368.575 112.165 377.124 106.415 381.954C100.665 386.784 92.0486 386.062 87.6025 380.011C61.2865 344.193 46.9913 300.808 47 256.127C47.0087 211.446 61.3215 168.067 87.6514 132.26ZM405.871 130.323C411.619 125.491 420.235 126.21 424.684 132.26C451.013 168.067 465.326 211.446 465.335 256.127C465.344 300.808 451.048 344.193 424.732 380.011C420.286 386.062 411.67 386.784 405.92 381.954C400.17 377.124 399.47 368.575 403.857 362.48C426.088 331.598 438.149 294.412 438.142 256.133C438.134 217.853 426.06 180.672 403.816 149.798C399.427 143.705 400.123 135.155 405.871 130.323ZM323.417 373.996C323.467 373.96 323.518 373.925 323.568 373.89C323.75 373.76 323.931 373.628 324.112 373.497C323.881 373.664 323.649 373.831 323.417 373.996ZM324.336 373.334C324.421 373.272 324.507 373.212 324.592 373.15C324.684 373.083 324.776 373.013 324.868 372.945C324.691 373.075 324.514 373.205 324.336 373.334ZM187.703 371.961C187.791 372.026 187.88 372.09 187.968 372.155C187.818 372.044 187.669 371.934 187.52 371.822L187.703 371.961ZM183.363 369.309C183.691 369.576 184.02 369.842 184.35 370.105L183.364 369.309C183.037 369.041 182.711 368.771 182.386 368.5L183.363 369.309ZM330.2 368.025C329.877 368.296 329.553 368.565 329.228 368.831C329.553 368.565 329.877 368.296 330.2 368.026C330.216 368.013 330.232 368.002 330.249 367.993L330.2 368.025ZM330.61 368.062L330.574 368.024C330.568 368.02 330.562 368.016 330.556 368.012C330.575 368.026 330.594 368.042 330.61 368.062ZM330.54 368.001C330.52 367.989 330.499 367.979 330.477 367.972C330.499 367.979 330.52 367.989 330.54 368.001ZM280.832 309.403C286.996 304.248 296.223 305.001 301.446 311.214C306.657 317.412 305.854 326.674 299.631 331.879C287.463 342.055 272.105 347.634 256.239 347.637C240.373 347.64 225.012 342.067 212.841 331.896C206.616 326.694 205.81 317.433 211.018 311.232C216.238 305.017 225.463 304.259 231.63 309.412C238.53 315.178 247.24 318.339 256.234 318.337C265.228 318.335 273.934 315.172 280.832 309.403ZM132.959 172.678C138.219 166.389 147.579 165.577 153.845 170.844C160.124 176.123 160.886 185.448 155.675 191.679C140.571 209.739 132.291 232.534 132.286 256.083C132.282 279.632 140.553 302.431 155.65 320.497C160.859 326.73 160.093 336.055 153.812 341.331C147.544 346.595 138.183 345.779 132.926 339.487C113.376 316.093 102.665 286.571 102.671 256.077C102.677 225.583 113.4 196.064 132.959 172.678ZM359.081 170.844C365.347 165.577 374.707 166.389 379.967 172.678C399.526 196.064 410.249 225.583 410.255 256.077C410.261 286.571 399.549 316.093 380 339.487C374.742 345.779 365.382 346.595 359.114 341.331C352.833 336.055 352.068 326.73 357.276 320.497C372.373 302.431 380.644 279.632 380.64 256.083C380.635 232.534 372.355 209.739 357.251 191.679C352.04 185.448 352.802 176.123 359.081 170.844ZM369.669 329.201C369.401 329.529 369.132 329.855 368.86 330.18C368.851 330.191 368.839 330.201 368.828 330.211L368.861 330.18C369.404 329.53 369.939 328.876 370.466 328.216L369.669 329.201ZM236.062 328.857C236.127 328.885 236.194 328.91 236.26 328.937C236.141 328.888 236.023 328.84 235.905 328.791L236.062 328.857ZM230.764 326.624C231.014 326.76 231.266 326.892 231.518 327.024C231.222 326.869 230.926 326.711 230.633 326.551L230.764 326.624ZM375.936 319.733H375.937H375.936ZM222.174 320.535L222.155 320.55C222.165 320.542 222.175 320.536 222.186 320.531C222.182 320.533 222.177 320.533 222.174 320.535ZM378.615 315.506C378.4 315.862 378.183 316.218 377.964 316.572C378.402 315.863 378.833 315.15 379.256 314.433L378.615 315.506ZM180.557 212.841C185.759 206.616 195.019 205.81 201.22 211.018C207.435 216.238 208.192 225.463 203.039 231.63C197.273 238.53 194.113 247.24 194.115 256.234C194.117 265.228 197.28 273.934 203.049 280.832C208.204 286.997 207.451 296.223 201.237 301.446C195.039 306.657 185.778 305.854 180.573 299.631C170.397 287.463 164.819 272.105 164.815 256.239C164.812 240.373 170.385 225.013 180.557 212.841ZM311.232 211.018C317.433 205.81 326.694 206.616 331.896 212.841C342.067 225.013 347.64 240.373 347.637 256.239C347.634 272.105 342.055 287.463 331.879 299.631C326.674 305.854 317.412 306.657 311.214 301.446C305.001 296.223 304.248 286.996 309.403 280.832C315.172 273.934 318.335 265.228 318.337 256.234C318.339 247.24 315.178 238.53 309.412 231.63C304.259 225.463 305.018 216.238 311.232 211.018ZM320.555 290.334C320.569 290.346 320.585 290.354 320.602 290.359C320.585 290.354 320.57 290.346 320.556 290.334C320.543 290.323 320.532 290.31 320.524 290.296C320.532 290.31 320.542 290.323 320.555 290.334ZM256.167 227.135C272.201 227.135 285.2 240.134 285.2 256.168C285.2 272.202 272.201 285.2 256.167 285.2C240.133 285.2 227.135 272.202 227.135 256.168C227.135 240.134 240.133 227.135 256.167 227.135ZM392.949 278.517H392.95H392.949ZM118.105 264.888C118.446 269.335 119.045 273.745 119.894 278.096C119.603 276.603 119.341 275.103 119.109 273.597C119.046 273.185 118.985 272.773 118.926 272.36C118.808 271.535 118.699 270.707 118.599 269.878C118.399 268.22 118.234 266.556 118.106 264.887L118.105 264.888ZM393.816 273.597H393.817C393.872 273.242 393.923 272.887 393.975 272.531C393.923 272.887 393.871 273.242 393.816 273.597ZM118.459 243.526C118.345 244.564 118.246 245.604 118.16 246.646C118.246 245.604 118.346 244.564 118.46 243.526C118.501 243.154 118.543 242.782 118.588 242.41C118.543 242.782 118.5 243.154 118.459 243.526ZM119.984 233.645C119.588 235.634 119.245 237.635 118.954 239.647C119.066 238.873 119.186 238.1 119.313 237.329C119.518 236.097 119.742 234.868 119.985 233.645H119.984ZM185.524 231.905C185.361 232.22 185.202 232.537 185.045 232.855C185.202 232.537 185.361 232.221 185.524 231.906V231.905ZM325.268 228.939L325.244 228.899C325.073 228.616 324.899 228.334 324.723 228.054C324.908 228.347 325.089 228.643 325.268 228.939ZM191.899 222.321C191.318 223.017 190.757 223.727 190.215 224.449C190.757 223.727 191.318 223.018 191.899 222.322L191.9 222.321C191.911 222.308 191.918 222.293 191.923 222.278C191.918 222.294 191.91 222.308 191.899 222.321ZM321.529 223.532C321.315 223.261 321.099 222.991 320.88 222.723C321.099 222.991 321.315 223.261 321.529 223.532ZM191.694 222.15C191.547 222.327 191.401 222.504 191.257 222.683C191.402 222.504 191.548 222.326 191.695 222.149L191.694 222.15ZM256.239 164.815C272.105 164.819 287.463 170.397 299.631 180.573C305.854 185.778 306.657 195.039 301.446 201.237C296.223 207.451 286.997 208.204 280.832 203.049C273.934 197.28 265.229 194.116 256.234 194.114C247.24 194.113 238.53 197.273 231.63 203.039C225.463 208.192 216.238 207.435 211.018 201.22C205.81 195.019 206.617 185.759 212.841 180.557C225.012 170.385 240.373 164.812 256.239 164.815ZM131.251 202.089C131.056 202.456 130.863 202.824 130.672 203.192C131.054 202.455 131.445 201.721 131.844 200.991L131.251 202.089ZM222.322 191.899C222.309 191.91 222.294 191.918 222.278 191.923C222.293 191.918 222.308 191.911 222.321 191.9L222.323 191.899C222.604 191.665 222.886 191.434 223.171 191.206L222.322 191.899ZM225.061 189.76C224.845 189.917 224.632 190.079 224.419 190.239C224.68 190.043 224.942 189.848 225.206 189.656L225.061 189.76ZM138.676 188.997L138.494 189.255C138.666 189.013 138.838 188.771 139.012 188.53C138.9 188.686 138.787 188.841 138.676 188.997ZM139.415 187.974C139.353 188.058 139.293 188.143 139.231 188.228C139.373 188.033 139.515 187.839 139.658 187.645C139.577 187.754 139.495 187.864 139.415 187.974ZM228.899 187.207C228.625 187.373 228.353 187.541 228.082 187.713C228.43 187.494 228.781 187.28 229.133 187.069L228.899 187.207ZM232.929 185.008C232.756 185.093 232.585 185.181 232.413 185.268C232.646 185.15 232.879 185.034 233.112 184.92L232.929 185.008ZM141.702 184.947C141.65 185.014 141.599 185.082 141.547 185.148C141.631 185.04 141.715 184.931 141.8 184.823L141.702 184.947ZM368.359 182.029C368.346 182.053 368.335 182.078 368.328 182.105C368.335 182.078 368.345 182.053 368.359 182.029ZM368.385 181.991C368.378 181.999 368.373 182.008 368.367 182.017C368.382 181.994 368.4 181.973 368.422 181.955L368.385 181.991ZM256.488 102.311C286.982 102.317 316.501 113.04 339.888 132.599C346.176 137.859 346.989 147.219 341.722 153.484C336.443 159.764 327.118 160.525 320.887 155.314C302.827 140.211 280.031 131.93 256.482 131.926C232.933 131.921 210.133 140.192 192.067 155.289C185.834 160.497 176.511 159.732 171.234 153.451C165.97 147.184 166.786 137.823 173.077 132.565C196.471 113.016 225.994 102.305 256.488 102.311ZM330.295 144.231C330.296 144.232 330.298 144.232 330.3 144.232C330.283 144.227 330.265 144.221 330.249 144.212L330.295 144.231ZM182.386 143.704L182.345 143.747L182.386 143.705C182.71 143.434 183.036 143.164 183.363 142.896C183.036 143.164 182.71 143.433 182.386 143.704ZM328.097 141.72C328.931 142.379 329.757 143.05 330.574 143.733V143.732C329.925 143.19 329.271 142.654 328.611 142.127C328.44 141.99 328.268 141.855 328.097 141.72ZM186.699 141.002V141.003V141.002ZM326.949 140.825C326.838 140.74 326.728 140.653 326.616 140.567C326.504 140.482 326.391 140.398 326.279 140.313C326.503 140.482 326.726 140.654 326.949 140.825ZM187.354 139.778C187.016 140.03 186.68 140.284 186.345 140.54V140.541C186.827 140.173 187.312 139.809 187.8 139.448C187.651 139.558 187.502 139.668 187.354 139.778ZM326.145 140.211C325.965 140.075 325.787 139.939 325.607 139.805C325.528 139.745 325.447 139.686 325.367 139.627C325.627 139.82 325.886 140.015 326.145 140.211ZM324.496 138.986C324.787 139.199 325.078 139.412 325.367 139.627C325.078 139.412 324.787 139.198 324.496 138.986ZM189.395 138.29C189.357 138.317 189.32 138.344 189.283 138.37C189.389 138.295 189.495 138.22 189.601 138.145C189.532 138.193 189.463 138.241 189.395 138.29ZM191.792 137.328C191.446 137.563 191.102 137.801 190.759 138.04L191.792 137.329C192.138 137.094 192.484 136.86 192.832 136.629L191.792 137.328ZM191.464 136.848C191.389 136.899 191.315 136.951 191.24 137.002C191.37 136.913 191.5 136.824 191.63 136.735C191.575 136.773 191.519 136.81 191.464 136.848ZM192.509 136.145C192.343 136.255 192.179 136.366 192.014 136.477C192.222 136.337 192.431 136.197 192.64 136.059L192.509 136.145ZM314.043 132.2C314.768 132.617 315.489 133.042 316.206 133.475C315.489 133.042 314.768 132.616 314.043 132.199V132.2ZM282.71 119.849C283.117 119.944 283.523 120.04 283.929 120.14L282.711 119.849C282.304 119.754 281.896 119.661 281.488 119.57L282.71 119.849ZM234.049 119.615C233.984 119.628 233.92 119.641 233.855 119.654C234.328 119.56 234.801 119.468 235.274 119.379L234.049 119.615ZM248.967 117.656C248.118 117.712 247.271 117.774 246.425 117.849H246.427C247.272 117.775 248.119 117.712 248.967 117.656ZM251.442 117.519C251.381 117.521 251.319 117.525 251.258 117.527C251.739 117.506 252.22 117.486 252.701 117.471L251.442 117.519ZM256.485 117.409C257.263 117.409 258.041 117.418 258.817 117.434C258.461 117.426 258.105 117.42 257.748 117.416L256.485 117.409ZM256.241 47C300.922 47.0159 344.299 61.3353 380.103 87.6709C386.151 92.1203 386.869 100.737 382.036 106.484C377.203 112.232 368.653 112.927 362.561 108.536C331.691 86.2882 294.512 74.2071 256.232 74.1934C217.953 74.1798 180.765 86.234 149.879 108.46C143.784 112.846 135.234 112.145 130.405 106.395C125.577 100.644 126.299 92.0281 132.352 87.583C168.173 61.2728 211.56 46.9842 256.241 47Z" fill="url(#paint0_linear_7_21)"/>
</g>
<defs>
<filter id="filter0_d_7_21" x="32.0218" y="32.0218" width="453.57" height="453.571" filterUnits="userSpaceOnUse" color-interpolation-filters="sRGB">
<feFlood flood-opacity="0" result="BackgroundImageFix"/>
<feColorMatrix in="SourceAlpha" type="matrix" values="0 0 0 0 0 0 0 0 0 0 0 0 0 0 0 0 0 0 127 0" result="hardAlpha"/>
<feOffset dx="2.63934" dy="2.63934"/>
<feGaussianBlur stdDeviation="8.80879"/>
<feComposite in2="hardAlpha" operator="out"/>
<feColorMatrix type="matrix" values="0 0 0 0 0.498039 0 0 0 0 1 0 0 0 0 0.831373 0 0 0 0.55 0"/>
<feBlend mode="normal" in2="BackgroundImageFix" result="effect1_dropShadow_7_21"/>
<feBlend mode="normal" in="SourceGraphic" in2="effect1_dropShadow_7_21" result="shape"/>
</filter>
<linearGradient id="paint0_linear_7_21" x1="25.4465" y1="19.1781" x2="503.497" y2="571.789" gradientUnits="userSpaceOnUse">
<stop offset="0.336538" stop-color="#2CD59C"/>
<stop offset="0.951923" stop-color="#7FFFD4"/>
</linearGradient>
</defs>
</svg>
