<svg width="1024" height="1024" viewBox="0 0 1024 1024" fill="none" xmlns="http://www.w3.org/2000/svg">
<rect width="1024" height="1024" rx="200" fill="url(#paint0_linear_1_69)"/>
<g filter="url(#filter0_d_1_69)">
<path d="M319.09 736.974C326.484 728.323 339.45 727.374 348.629 734.102C395.141 768.194 451.338 786.956 509.35 787.443C567.362 787.93 623.866 770.116 670.944 736.809C680.235 730.236 693.183 731.402 700.431 740.176C707.678 748.95 706.478 761.998 697.252 768.661C642.644 808.097 576.717 829.223 509.004 828.654C441.29 828.086 375.728 805.856 321.79 765.509C312.677 758.692 311.696 745.625 319.09 736.974ZM609.75 664.314C619.193 656.417 633.326 657.571 641.326 667.088C649.308 676.583 648.077 690.769 638.545 698.741L636.878 700.12C601.705 728.887 557.644 744.634 512.151 744.643C465.937 744.652 421.194 728.419 385.739 698.791C376.204 690.823 374.968 676.637 382.946 667.139C390.943 657.618 405.075 656.459 414.521 664.353C441.901 687.232 476.454 699.768 512.143 699.761C547.832 699.754 582.379 687.205 609.75 664.314ZM483.584 720.303C483.682 720.319 483.78 720.334 483.878 720.35C483.716 720.323 483.555 720.296 483.394 720.27C483.457 720.28 483.52 720.292 483.584 720.303ZM445.953 708.708C446.444 708.909 446.935 709.109 447.428 709.306V709.305C446.844 709.071 446.262 708.834 445.681 708.595L445.953 708.708ZM444.103 707.934C444.622 708.154 445.142 708.373 445.664 708.588C445.142 708.373 444.622 708.154 444.103 707.934ZM256.273 323.878C263.015 314.71 276.074 313.621 284.785 320.944C293.496 328.267 294.551 341.225 287.898 350.459C254.189 397.249 235.889 453.598 235.878 511.611C235.867 569.625 254.144 625.982 287.836 672.785C294.485 682.021 293.425 694.978 284.711 702.298C275.997 709.617 262.939 708.525 256.2 699.354C216.317 645.071 194.652 579.319 194.665 511.604C194.678 443.888 216.37 378.145 256.273 323.878ZM738.546 320.944C747.257 313.621 760.316 314.71 767.058 323.878C806.961 378.145 828.652 443.888 828.665 511.604C828.678 579.319 807.014 645.071 767.131 699.354C760.393 708.525 747.334 709.617 738.62 702.298C729.906 694.978 728.845 682.021 735.494 672.785C769.186 625.982 787.464 569.625 787.453 511.611C787.442 453.598 769.142 397.249 735.432 350.459C728.779 341.225 729.834 328.267 738.546 320.944ZM429.94 701.161C433.388 703.005 436.893 704.73 440.45 706.336C439.888 706.082 439.327 705.826 438.768 705.566C435.787 704.183 432.843 702.714 429.94 701.161ZM427.048 699.577C427.497 699.829 427.948 700.078 428.399 700.325C427.948 700.078 427.497 699.829 427.048 699.577ZM410.155 688.804C413.562 691.263 417.049 693.592 420.608 695.79C417.336 693.77 414.126 691.639 410.982 689.397C410.706 689.2 410.431 689.002 410.155 688.804ZM618.013 685.873C618.478 685.516 618.943 685.158 619.405 684.796C618.943 685.158 618.478 685.516 618.013 685.873ZM549.046 592.347C558.388 584.534 572.37 585.673 580.286 595.09C588.183 604.484 586.966 618.521 577.535 626.408C559.095 641.831 535.818 650.285 511.773 650.29C487.729 650.295 464.448 641.85 446.002 626.435C436.568 618.551 435.346 604.515 443.239 595.117C451.151 585.698 465.132 584.551 474.478 592.36C484.935 601.099 498.133 605.887 511.765 605.885C525.396 605.882 538.592 601.089 549.046 592.347ZM324.938 385.135C332.91 375.603 347.097 374.372 356.592 382.354C366.109 390.354 367.263 404.487 359.365 413.93C336.475 441.3 323.926 475.847 323.919 511.536C323.912 547.225 336.447 581.779 359.327 609.158C367.221 618.605 366.061 632.737 356.541 640.733C347.043 648.711 332.857 647.475 324.889 637.94C295.26 602.486 279.028 557.743 279.037 511.528C279.046 466.035 294.792 421.975 323.559 386.802L324.938 385.135ZM667.635 382.354C677.13 374.372 691.316 375.603 699.288 385.135L700.667 386.802C729.433 421.975 745.181 466.035 745.189 511.528C745.198 557.743 728.965 602.486 699.337 637.94C691.369 647.475 677.183 648.711 667.685 640.733C658.165 632.737 657.005 618.605 664.899 609.158C687.779 581.779 700.315 547.225 700.308 511.536C700.301 475.847 687.752 441.3 664.861 413.93C656.964 404.486 658.118 390.354 667.635 382.354ZM515.028 627.817C513.944 627.861 512.858 627.884 511.77 627.884C511.531 627.884 511.292 627.88 511.053 627.878C511.291 627.88 511.53 627.885 511.769 627.885C512.857 627.885 513.944 627.862 515.028 627.817ZM505.42 627.632C505.562 627.643 505.705 627.655 505.848 627.665C505.775 627.66 505.702 627.655 505.629 627.649C505.559 627.644 505.49 627.637 505.42 627.632ZM537.601 624.03L538.425 623.746C538.508 623.717 538.59 623.686 538.673 623.656C538.316 623.783 537.959 623.909 537.601 624.03ZM541.204 622.711C540.48 622.995 539.752 623.269 539.021 623.532C539.096 623.505 539.171 623.479 539.246 623.452C539.902 623.214 540.554 622.966 541.204 622.711ZM338.481 618.342C339.771 620.004 341.092 621.646 342.445 623.266C342.484 623.312 342.512 623.364 342.529 623.419L342.496 623.34C342.482 623.314 342.466 623.289 342.446 623.266C342.037 622.776 341.631 622.284 341.228 621.79C340.297 620.651 339.381 619.501 338.481 618.342ZM541.374 622.644C541.75 622.495 542.125 622.346 542.498 622.191H542.497C542.124 622.345 541.749 622.495 541.374 622.644ZM468.122 614.965C468.279 615.066 468.437 615.166 468.594 615.267C468.192 615.009 467.791 614.75 467.393 614.485L468.122 614.965ZM689.787 612.916L689.945 612.697C689.995 612.627 690.044 612.556 690.094 612.485C689.992 612.629 689.89 612.773 689.787 612.916ZM461.049 609.803C461.178 609.908 461.308 610.012 461.438 610.116C461.08 609.828 460.724 609.537 460.371 609.242L461.049 609.803ZM691.784 610.063C691.935 609.844 692.086 609.625 692.235 609.404C692.086 609.625 691.935 609.844 691.784 610.063ZM697.239 601.594C696.587 602.675 695.922 603.75 695.245 604.817C694.907 605.351 694.565 605.884 694.221 606.414C693.613 607.35 692.996 608.28 692.37 609.205C694.404 606.2 696.341 603.137 698.178 600.021C697.868 600.546 697.555 601.071 697.239 601.594ZM328.98 604.818C329.298 605.32 329.619 605.819 329.942 606.317C329.619 605.819 329.299 605.319 328.981 604.817L328.98 604.818ZM698.287 599.833C698.577 599.34 698.865 598.845 699.149 598.35C698.865 598.845 698.577 599.34 698.287 599.833ZM705.574 586.058C705.752 585.682 705.929 585.306 706.104 584.93C705.929 585.306 705.752 585.682 705.574 586.058ZM397.072 446.002C404.956 436.568 418.992 435.346 428.39 443.239C437.809 451.151 438.956 465.132 431.146 474.478C422.407 484.935 417.619 498.133 417.622 511.765C417.625 525.396 422.418 538.592 431.161 549.046C438.974 558.388 437.833 572.37 428.417 580.286C419.022 588.183 404.986 586.966 397.099 577.535C381.676 559.095 373.222 535.818 373.217 511.773C373.212 487.729 381.657 464.448 397.072 446.002ZM595.117 443.239C604.515 435.346 618.551 436.568 626.435 446.002C641.85 464.448 650.295 487.729 650.29 511.774C650.285 535.819 641.83 559.095 626.408 577.535C618.521 586.966 604.484 588.183 595.09 580.286C585.674 572.37 584.534 558.388 592.347 549.046C601.089 538.592 605.882 525.396 605.885 511.765C605.887 498.133 601.099 484.935 592.36 474.478C584.551 465.132 585.698 451.151 595.117 443.239ZM708.53 579.458C708.736 578.972 708.941 578.486 709.142 577.999C708.941 578.486 708.736 578.972 708.53 579.458ZM612.271 559.958C611.743 560.664 611.203 561.362 610.651 562.052V562.053C611.019 561.593 611.382 561.129 611.739 560.662C611.918 560.428 612.095 560.193 612.271 559.958ZM410.713 559.251C410.886 559.488 411.061 559.724 411.236 559.959C411.412 560.194 411.589 560.429 411.768 560.662H411.769C411.412 560.195 411.059 559.725 410.713 559.251ZM511.665 467.665C535.965 467.665 555.665 487.365 555.665 511.665C555.665 535.966 535.966 555.665 511.665 555.665C487.365 555.665 467.665 535.965 467.665 511.665C467.665 487.365 487.365 467.665 511.665 467.665ZM623.745 538.425C623.649 538.699 623.551 538.973 623.452 539.246L623.746 538.425C623.842 538.151 623.937 537.876 624.03 537.601L623.745 538.425ZM399.201 536.773C399.382 537.326 399.569 537.876 399.762 538.425L399.478 537.601C399.384 537.325 399.291 537.05 399.201 536.773ZM396.246 524.588C396.356 525.271 396.475 525.952 396.603 526.631L396.446 525.771C396.377 525.377 396.31 524.983 396.246 524.588ZM627.647 517.909C627.603 518.491 627.552 519.072 627.494 519.652L627.576 518.781C627.602 518.491 627.625 518.2 627.647 517.909ZM395.622 511.769C395.622 512.411 395.632 513.053 395.647 513.693C395.632 513.053 395.623 512.412 395.623 511.77C395.623 511.329 395.626 510.889 395.633 510.449V510.448C395.626 510.888 395.622 511.328 395.622 511.769ZM627.873 513.04C627.88 512.617 627.885 512.193 627.885 511.77H627.884C627.884 512.193 627.88 512.617 627.873 513.04ZM395.235 510.001C395.229 510.295 395.224 510.59 395.221 510.885L395.222 510.884C395.226 510.495 395.233 510.107 395.242 509.72C395.24 509.813 395.237 509.907 395.235 510.001ZM722.814 500.135C722.895 501.372 722.965 502.611 723.02 503.852L722.925 501.938C722.892 501.336 722.854 500.735 722.814 500.135ZM627.453 503.466C627.441 503.353 627.431 503.239 627.419 503.126L627.406 503.018C627.423 503.167 627.438 503.316 627.453 503.466ZM301.554 498.117C301.546 498.219 301.539 498.321 301.531 498.423C301.553 498.129 301.577 497.836 301.601 497.543C301.585 497.734 301.568 497.926 301.554 498.117ZM301.711 496.212C301.698 496.362 301.687 496.512 301.674 496.662C301.694 496.427 301.713 496.191 301.734 495.956L301.711 496.212ZM397.315 493.485C397.296 493.567 397.279 493.649 397.26 493.73C397.344 493.365 397.43 493 397.519 492.636L397.315 493.485ZM511.773 373.217C535.818 373.222 559.095 381.676 577.535 397.099C586.966 404.986 588.183 419.022 580.286 428.417C572.37 437.833 558.388 438.974 549.046 431.161C538.592 422.418 525.396 417.625 511.765 417.622C498.133 417.619 484.935 422.407 474.478 431.146C465.132 438.956 451.151 437.809 443.239 428.39C435.346 418.992 436.568 404.957 446.002 397.073C464.448 381.658 487.729 373.212 511.773 373.217ZM557.095 409.192C558.063 409.852 559.018 410.533 559.959 411.236C559.489 410.885 559.014 410.539 558.537 410.198C558.298 410.028 558.059 409.859 557.818 409.691C557.578 409.524 557.337 409.357 557.095 409.192ZM532.593 397.96C532.874 398.035 533.155 398.111 533.435 398.189C532.874 398.033 532.312 397.883 531.748 397.738L532.593 397.96ZM515.284 395.701C515.577 395.714 515.869 395.728 516.161 395.744L516.16 395.743C515.624 395.714 515.088 395.691 514.551 395.672C514.795 395.68 515.04 395.69 515.284 395.701ZM511.769 395.622C511.328 395.622 510.889 395.626 510.449 395.634C510.889 395.627 511.329 395.623 511.77 395.623C511.978 395.623 512.186 395.624 512.395 395.626C512.186 395.624 511.977 395.622 511.769 395.622ZM512.151 278.49C557.644 278.499 601.705 294.246 636.878 323.013L638.545 324.392C648.077 332.363 649.308 346.55 641.326 356.045C633.326 365.562 619.193 366.716 609.75 358.818C582.379 335.928 547.832 323.379 512.143 323.372C476.454 323.365 441.901 335.901 414.521 358.78C405.075 366.674 390.943 365.514 382.946 355.994C374.968 346.496 376.204 332.31 385.739 324.342C421.194 294.714 465.937 278.481 512.151 278.49ZM400.092 342.001C400.099 342.002 400.106 342 400.113 342C400.102 342 400.09 341.999 400.078 341.998L400.092 342.001ZM400.155 342C400.162 342 400.17 342.001 400.177 342C400.18 342 400.184 341.998 400.188 341.997C400.177 341.999 400.166 341.999 400.155 342ZM616.374 336.02H616.375C615.872 335.644 615.368 335.271 614.861 334.901C615.367 335.271 615.872 335.644 616.374 336.02ZM613.086 333.623C612.663 333.323 612.239 333.024 611.814 332.728C612.239 333.024 612.663 333.322 613.086 333.623ZM609.918 331.423C609.481 331.126 609.043 330.831 608.604 330.538C609.043 330.831 609.481 331.126 609.918 331.423ZM417.318 329.426C416.821 329.748 416.325 330.074 415.831 330.401C416.325 330.073 416.821 329.748 417.318 329.426ZM426.994 323.584C425.874 324.211 424.761 324.851 423.654 325.504C424.217 325.172 424.782 324.844 425.349 324.519C425.896 324.204 426.444 323.893 426.994 323.585V323.584ZM440.483 316.78C439.922 317.033 439.363 317.29 438.805 317.549C439.363 317.29 439.923 317.033 440.484 316.78H440.483ZM502.552 300.751C501.96 300.783 501.368 300.819 500.776 300.857C501.368 300.819 501.96 300.783 502.552 300.751ZM511.778 194.665C579.494 194.689 645.233 216.391 699.494 256.304C708.661 263.047 709.747 276.105 702.423 284.815C695.098 293.526 682.141 294.579 672.908 287.925C626.124 254.207 569.778 235.899 511.764 235.878C453.75 235.857 397.391 254.126 350.582 287.811C341.345 294.458 328.388 293.395 321.069 284.68C313.751 275.964 314.846 262.907 324.019 256.17C378.308 216.296 444.062 194.641 511.778 194.665Z" fill="url(#paint1_linear_1_69)"/>
</g>
<defs>
<filter id="filter0_d_1_69" x="177.965" y="177.965" width="675.4" height="675.4" filterUnits="userSpaceOnUse" color-interpolation-filters="sRGB">
<feFlood flood-opacity="0" result="BackgroundImageFix"/>
<feColorMatrix in="SourceAlpha" type="matrix" values="0 0 0 0 0 0 0 0 0 0 0 0 0 0 0 0 0 0 127 0" result="hardAlpha"/>
<feOffset dx="4" dy="4"/>
<feGaussianBlur stdDeviation="10.35"/>
<feComposite in2="hardAlpha" operator="out"/>
<feColorMatrix type="matrix" values="0 0 0 0 0.498039 0 0 0 0 1 0 0 0 0 0.831373 0 0 0 0.18 0"/>
<feBlend mode="normal" in2="BackgroundImageFix" result="effect1_dropShadow_1_69"/>
<feBlend mode="normal" in="SourceGraphic" in2="effect1_dropShadow_1_69" result="shape"/>
</filter>
<linearGradient id="paint0_linear_1_69" x1="-63" y1="-13" x2="1175" y2="1139" gradientUnits="userSpaceOnUse">
<stop offset="0.307692" stop-color="#1F1F1F"/>
<stop offset="0.818383" stop-color="#242424"/>
</linearGradient>
<linearGradient id="paint1_linear_1_69" x1="162" y1="152.5" x2="886.5" y2="990" gradientUnits="userSpaceOnUse">
<stop offset="0.240385" stop-color="#0D8459"/>
<stop offset="0.951923" stop-color="#7FFFD4"/>
</linearGradient>
</defs>
</svg>
